<svg preserveAspectRatio="xMidYMid meet" width="100%" height="100%" overflow="visible" style="display: block;" viewBox="0 0 431 112" fill="none" xmlns="http://www.w3.org/2000/svg">
<g id="Vector">
<path d="M73.7513 50.0858C73.7513 50.9285 73.7372 51.7572 73.6529 52.5859C73.3297 56.336 72.3038 59.9035 70.7017 63.1199C70.0834 64.384 68.4954 64.8194 67.3009 64.089H67.2728C53.1354 55.4933 35.4004 55.4933 21.2771 64.075L21.2349 64.1031C20.0404 64.8335 18.4524 64.384 17.8341 63.134C16.2461 59.9035 15.2202 56.35 14.911 52.5999C14.8408 51.7713 14.7986 50.9566 14.7986 50.0999C14.7986 49.2431 14.8408 48.4144 14.911 47.5998C15.2202 43.8356 16.2461 40.2821 17.8481 37.0517C18.4664 35.7876 20.0544 35.3522 21.249 36.0826C35.3864 44.6924 53.1494 44.6783 67.2868 36.0826C68.4814 35.3522 70.0694 35.8017 70.6877 37.0517C72.2897 40.2821 73.3156 43.8356 73.6388 47.5998C73.7091 48.4004 73.7372 49.2431 73.7372 50.0999L73.7513 50.0858Z" fill="#4C84E2"/>
<path d="M44.2819 12.6127C58.054 12.6127 70.2239 19.5512 77.5034 30.1133C78.2201 31.1526 79.6255 31.4195 80.7075 30.7594L87.3827 26.7003C88.5351 25.998 88.9145 24.467 88.1557 23.3434C78.6277 9.26995 62.5228 0 44.2819 0C26.0411 0 9.92217 9.26995 0.408238 23.3434C-0.350628 24.467 0.0288046 25.998 1.18116 26.7003L7.85637 30.7594C8.9244 31.4055 10.3438 31.1386 11.0605 30.1133C18.3259 19.5512 30.5099 12.6127 44.2819 12.6127ZM88.1416 76.8282C88.9005 75.7046 88.521 74.1736 87.3687 73.4714L80.6935 69.4122C79.6254 68.7661 78.2061 69.033 77.4894 70.0583C70.2239 80.6205 58.0399 87.5589 44.2679 87.5589C30.4959 87.5589 18.3119 80.6205 11.0464 70.0583C10.3297 69.019 8.92441 68.7521 7.84232 69.4122L1.1671 73.4714C0.0147515 74.1736 -0.364682 75.7046 0.394185 76.8282C9.90812 90.9017 26.027 100.172 44.2679 100.172C62.5088 100.172 78.6136 90.9017 88.1416 76.8282Z" fill="#4C84E2"/>
<path d="M122.853 87.3897V13.5589H133.575V48.0133L164.509 13.5589H177.847L145.169 49.6027L180.258 87.3897H166.509L133.575 52.115V87.3897H122.853Z" fill="var(--fill-0, #E4EDFB)"/>
<path d="M202.813 88.9279C197.307 88.9279 192.468 87.7315 188.296 85.3389C184.157 82.912 180.926 79.5452 178.6 75.2384C176.309 70.8974 175.163 65.8728 175.163 60.1646C175.163 54.1146 176.292 48.8678 178.549 44.4243C180.84 39.9808 184.021 36.5456 188.09 34.1188C192.16 31.6919 196.897 30.4785 202.3 30.4785C207.943 30.4785 212.748 31.7945 216.716 34.4264C220.683 37.0241 223.641 40.7328 225.59 45.5523C227.574 50.3718 228.361 56.0971 227.95 62.7282H217.229V58.8316C217.16 52.4056 215.929 47.6544 213.535 44.5781C211.175 41.5018 207.567 39.9637 202.711 39.9637C197.341 39.9637 193.306 41.6557 190.604 45.0396C187.902 48.4235 186.551 53.3114 186.551 59.7032C186.551 65.7874 187.902 70.5044 190.604 73.8541C193.306 77.1696 197.205 78.8274 202.3 78.8274C205.652 78.8274 208.542 78.0754 210.97 76.5715C213.432 75.0333 215.348 72.8458 216.716 70.0087L227.232 73.3414C225.077 78.2976 221.811 82.143 217.434 84.8774C213.056 87.5777 208.183 88.9279 202.813 88.9279ZM183.063 62.7282V54.371H222.615V62.7282H183.063Z" fill="var(--fill-0, #E4EDFB)"/>
<path d="M258.902 88.9279C253.396 88.9279 248.557 87.7315 244.384 85.3389C240.246 82.912 237.014 79.5452 234.689 75.2384C232.397 70.8974 231.252 65.8728 231.252 60.1646C231.252 54.1146 232.38 48.8678 234.638 44.4243C236.929 39.9808 240.109 36.5456 244.179 34.1188C248.249 31.6919 252.986 30.4785 258.389 30.4785C264.032 30.4785 268.837 31.7945 272.804 34.4264C276.772 37.0241 279.73 40.7328 281.679 45.5523C283.663 50.3718 284.449 56.0971 284.039 62.7282H273.317V58.8316C273.249 52.4056 272.018 47.6544 269.624 44.5781C267.264 41.5018 263.656 39.9637 258.8 39.9637C253.43 39.9637 249.395 41.6557 246.693 45.0396C243.991 48.4235 242.64 53.3114 242.64 59.7032C242.64 65.7874 243.991 70.5044 246.693 73.8541C249.395 77.1696 253.293 78.8274 258.389 78.8274C261.741 78.8274 264.631 78.0754 267.059 76.5715C269.521 75.0333 271.436 72.8458 272.804 70.0087L283.321 73.3414C281.166 78.2976 277.9 82.143 273.523 84.8774C269.145 87.5777 264.272 88.9279 258.902 88.9279ZM239.152 62.7282V54.371H278.704V62.7282H239.152Z" fill="var(--fill-0, #E4EDFB)"/>
<path d="M314.924 88.9279C309.624 88.9279 305.178 87.6461 301.587 85.0825C297.996 82.4848 295.277 78.9812 293.43 74.5719C291.583 70.1625 290.66 65.1892 290.66 59.6519C290.66 54.1146 291.566 49.1413 293.379 44.7319C295.225 40.3226 297.927 36.8532 301.484 34.3239C305.075 31.7603 309.487 30.4785 314.719 30.4785C319.918 30.4785 324.398 31.7603 328.16 34.3239C331.956 36.8532 334.88 40.3226 336.932 44.7319C338.984 49.1071 340.01 54.0804 340.01 59.6519C340.01 65.1892 338.984 70.1796 336.932 74.6232C334.914 79.0325 332.024 82.519 328.262 85.0825C324.535 87.6461 320.089 88.9279 314.924 88.9279ZM288.864 112V32.0166H298.406V71.8545H299.637V112H288.864ZM313.437 79.2376C316.857 79.2376 319.678 78.366 321.901 76.6227C324.158 74.8795 325.834 72.5381 326.929 69.5986C328.057 66.6248 328.621 63.3093 328.621 59.6519C328.621 56.0287 328.057 52.7474 326.929 49.8078C325.834 46.8682 324.141 44.5269 321.85 42.7836C319.559 41.0404 316.634 40.1688 313.078 40.1688C309.726 40.1688 306.956 40.9891 304.767 42.6298C302.613 44.2705 301.005 46.5606 299.945 49.5002C298.919 52.4397 298.406 55.8237 298.406 59.6519C298.406 63.4802 298.919 66.8641 299.945 69.8036C300.971 72.7432 302.595 75.0504 304.818 76.7253C307.041 78.4002 309.914 79.2376 313.437 79.2376Z" fill="var(--fill-0, #E4EDFB)"/>
<path d="M346.207 87.3897V32.0166H355.748V45.4497L354.415 43.7065C355.099 41.9291 355.988 40.3055 357.082 38.8357C358.177 37.3318 359.442 36.1013 360.878 35.1442C362.281 34.1188 363.837 33.3326 365.547 32.7857C367.291 32.2046 369.069 31.8628 370.882 31.7603C372.694 31.6236 374.439 31.709 376.114 32.0166V42.0658C374.302 41.5873 372.284 41.4506 370.061 41.6557C367.872 41.8607 365.854 42.5615 364.008 43.7578C362.263 44.8858 360.878 46.253 359.852 47.8595C358.861 49.466 358.142 51.2605 357.698 53.243C357.253 55.1913 357.031 57.2593 357.031 59.4468V87.3897H346.207Z" fill="var(--fill-0, #E4EDFB)"/>
<path d="M403.811 88.9279C398.271 88.9279 393.466 87.6803 389.396 85.1851C385.326 82.6899 382.18 79.2547 379.957 74.8795C377.768 70.4702 376.674 65.3943 376.674 59.6519C376.674 53.8753 377.802 48.7995 380.06 44.4243C382.317 40.015 385.48 36.5969 389.55 34.17C393.62 31.709 398.373 30.4785 403.811 30.4785C409.352 30.4785 414.157 31.7261 418.226 34.2213C422.296 36.7165 425.443 40.1517 427.666 44.5269C429.889 48.902 431 53.9437 431 59.6519C431 65.4285 429.871 70.5214 427.614 74.9308C425.391 79.3059 422.245 82.7411 418.175 85.2363C414.105 87.6974 409.317 88.9279 403.811 88.9279ZM403.811 78.8274C409.112 78.8274 413.062 77.05 415.661 73.4952C418.295 69.9062 419.612 65.2918 419.612 59.6519C419.612 53.8753 418.278 49.2609 415.61 45.8086C412.977 42.3222 409.044 40.579 403.811 40.579C400.22 40.579 397.262 41.3993 394.936 43.04C392.611 44.6465 390.884 46.8853 389.755 49.7565C388.627 52.5936 388.062 55.892 388.062 59.6519C388.062 65.4627 389.396 70.1113 392.064 73.5977C394.731 77.0842 398.647 78.8274 403.811 78.8274Z" fill="var(--fill-0, #E4EDFB)"/>
</g>
</svg>
