<svg width="580" height="88" viewBox="0 0 580 88" fill="none" xmlns="http://www.w3.org/2000/svg">
<path d="M126.188 71.2446H148.362V79.9245H115.437V14.3822H126.188V71.2446Z" fill="white"/>
<path d="M201.847 57.9521H162.137C162.456 62.0989 163.99 65.4391 166.763 67.9499C169.525 70.4607 172.923 71.7218 176.946 71.7218C182.731 71.7218 186.822 69.3019 189.209 64.462H200.813C199.245 69.245 196.392 73.1533 192.278 76.1981C188.164 79.2428 183.049 80.7766 176.946 80.7766C171.98 80.7766 167.524 79.6632 163.592 77.425C159.66 75.1983 156.58 72.0512 154.352 67.9953C152.125 63.9394 151 59.2473 151 53.8962C151 48.5451 152.079 43.853 154.25 39.797C156.421 35.7411 159.467 32.6168 163.399 30.4128C167.331 28.2087 171.843 27.1067 176.935 27.1067C182.026 27.1067 186.209 28.1746 190.05 30.3105C193.892 32.4464 196.869 35.4457 199.017 39.3199C201.154 43.1827 202.222 47.6362 202.222 52.6578C202.222 54.6119 202.097 56.3729 201.847 57.9407V57.9521ZM190.993 49.2722C190.925 45.3072 189.516 42.1374 186.754 39.7516C183.981 37.3658 180.56 36.1728 176.469 36.1728C172.752 36.1728 169.582 37.3544 166.945 39.7062C164.308 42.0693 162.728 45.2504 162.228 49.2722H190.993Z" fill="white"/>
<path d="M215.564 29.7538C218.553 24.664 222.61 20.6876 227.736 17.8246C232.862 14.9616 238.476 13.5301 244.579 13.5301C251.557 13.5301 257.774 15.2457 263.207 18.6654C268.651 22.0964 272.594 26.9476 275.049 33.2303H262.127C260.434 29.7765 258.07 27.1975 255.058 25.4934C252.046 23.7892 248.546 22.9485 244.591 22.9485C240.249 22.9485 236.385 23.9255 232.987 25.8683C229.589 27.8224 226.929 30.6172 225.02 34.2642C223.099 37.9111 222.144 42.1488 222.144 46.9886C222.144 51.8284 223.099 56.0775 225.02 59.7244C226.94 63.3713 229.6 66.1889 232.987 68.1657C236.374 70.1426 240.249 71.131 244.591 71.131C248.557 71.131 252.046 70.2789 255.058 68.5861C258.07 66.8933 260.434 64.3143 262.127 60.8492H275.049C272.594 67.1319 268.651 71.9717 263.207 75.3687C257.763 78.7656 251.557 80.4584 244.579 80.4584C238.419 80.4584 232.782 79.0269 227.691 76.1639C222.599 73.3009 218.553 69.3246 215.564 64.2348C212.575 59.145 211.086 53.3849 211.086 46.9772C211.086 40.5696 212.575 34.8095 215.564 29.7197V29.7538Z" fill="white"/>
<path d="M293.915 77.425C289.949 75.1983 286.835 72.0512 284.573 67.9953C282.311 63.9394 281.175 59.2473 281.175 53.8962C281.175 48.5451 282.334 43.9325 284.664 39.8425C286.994 35.7525 290.165 32.6168 294.188 30.4128C298.211 28.2087 302.712 27.1067 307.678 27.1067C312.645 27.1067 317.146 28.2087 321.169 30.4128C325.192 32.6168 328.374 35.7525 330.693 39.8425C333.023 43.9325 334.182 48.6133 334.182 53.8962C334.182 59.1791 332.989 63.8599 330.602 67.9499C328.215 72.0399 324.953 75.1983 320.839 77.425C316.725 79.6518 312.179 80.7766 307.212 80.7766C302.246 80.7766 297.87 79.6632 293.915 77.425ZM314.986 69.4495C317.407 68.1317 319.373 66.1435 320.885 63.5077C322.396 60.8719 323.146 57.6567 323.146 53.8848C323.146 50.1129 322.419 46.9205 320.976 44.3188C319.532 41.7057 317.611 39.7402 315.225 38.4223C312.838 37.1045 310.258 36.4455 307.485 36.4455C304.712 36.4455 302.155 37.1045 299.802 38.4223C297.438 39.7402 295.574 41.7057 294.188 44.3188C292.801 46.9318 292.108 50.1129 292.108 53.8848C292.108 59.4859 293.54 63.8031 296.404 66.8479C299.268 69.8926 302.871 71.4264 307.201 71.4264C309.963 71.4264 312.565 70.7674 314.986 69.4495Z" fill="white"/>
<path d="M356.447 36.7295V79.9131H345.605V36.7295H339.479V27.9588H345.605V24.2778C345.605 18.3018 347.196 13.9505 350.367 11.2125C353.538 8.47444 358.527 7.11111 365.323 7.11111V16.075C362.05 16.075 359.754 16.6885 358.436 17.9155C357.118 19.1425 356.458 21.2671 356.458 24.2778V27.9588H366.085V36.7295H356.447Z" fill="white"/>
<path d="M389.646 36.7295V79.9131H378.803V36.7295H372.678V27.9588H378.803V24.2778C378.803 18.3018 380.395 13.9505 383.565 11.2125C386.736 8.47444 391.726 7.11111 398.522 7.11111V16.075C395.249 16.075 392.953 16.6885 391.635 17.9155C390.316 19.1425 389.657 21.2671 389.657 24.2778V27.9588H399.283V36.7295H389.646Z" fill="white"/>
<path d="M423.842 29.3334C426.456 27.8565 429.547 27.118 433.139 27.118V38.2405H430.4C426.183 38.2405 423.001 39.3085 420.83 41.4444C418.66 43.5803 417.58 47.2954 417.58 52.5669V79.9131H406.829V27.9587H417.58V35.5025C419.148 32.8667 421.24 30.799 423.854 29.3221L423.842 29.3334Z" fill="white"/>
<path d="M487.283 57.9521H447.573C447.892 62.0989 449.426 65.4391 452.199 67.9499C454.961 70.4607 458.359 71.7218 462.382 71.7218C468.167 71.7218 472.259 69.3019 474.645 64.462H486.249C484.681 69.245 481.828 73.1533 477.714 76.1981C473.6 79.2428 468.485 80.7766 462.382 80.7766C457.416 80.7766 452.961 79.6632 449.028 77.425C445.096 75.1983 442.016 72.0512 439.788 67.9953C437.561 63.9394 436.436 59.2473 436.436 53.8962C436.436 48.5451 437.515 43.853 439.686 39.797C441.857 35.7411 444.903 32.6168 448.835 30.4128C452.767 28.2087 457.279 27.1067 462.371 27.1067C467.462 27.1067 471.645 28.1746 475.486 30.3105C479.328 32.4464 482.305 35.4457 484.453 39.3199C486.59 43.1827 487.658 47.6362 487.658 52.6578C487.658 54.6119 487.533 56.3729 487.283 57.9407V57.9521ZM476.43 49.2722C476.361 45.3072 474.952 42.1374 472.19 39.7516C469.417 37.3658 465.996 36.1728 461.905 36.1728C458.189 36.1728 455.018 37.3544 452.381 39.7062C449.744 42.0693 448.164 45.2504 447.664 49.2722H476.43Z" fill="white"/>
<path d="M497.465 79.1633C496.772 78.4703 496.431 77.5955 496.431 76.5275C496.431 75.4596 496.772 74.5848 497.465 73.8917C498.159 73.1987 499.034 72.8579 500.102 72.8579C501.102 72.8579 501.955 73.1987 502.648 73.8917C503.341 74.5848 503.682 75.4596 503.682 76.5275C503.682 77.5955 503.341 78.4816 502.648 79.1633C501.955 79.8563 501.102 80.1972 500.102 80.1972C499.034 80.1972 498.147 79.8563 497.465 79.1633Z" fill="white"/>
<path d="M514.447 16.3136C513.753 15.6547 513.412 14.7571 513.412 13.621C513.412 12.5531 513.753 11.6783 514.447 10.9853C515.14 10.2922 515.992 9.95139 516.992 9.95139C517.992 9.95139 518.845 10.2922 519.538 10.9853C520.231 11.6783 520.572 12.5531 520.572 13.621C520.572 14.7571 520.231 15.6433 519.538 16.3136C518.845 16.9726 517.992 17.302 516.992 17.302C515.992 17.302 515.14 16.9726 514.447 16.3136ZM519.072 28.7199V79.9245H514.822V28.7199H519.072Z" fill="white"/>
<path d="M541.711 77.4705C537.869 75.3346 534.869 72.2671 532.698 68.2794C530.527 64.2916 529.448 59.6222 529.448 54.2711C529.448 48.92 530.55 44.3528 532.744 40.3651C534.949 36.3773 537.983 33.3212 541.847 31.2194C545.711 29.1176 550.041 28.061 554.815 28.061C559.588 28.061 563.907 29.1176 567.737 31.2194C571.578 33.3212 574.579 36.3546 576.75 40.3196C578.92 44.2847 580 48.9314 580 54.2711C580 59.6108 578.898 64.2802 576.704 68.2794C574.499 72.2671 571.465 75.3346 567.601 77.4705C563.737 79.6064 559.406 80.6743 554.633 80.6743C549.86 80.6743 545.541 79.6064 541.711 77.4705ZM565.055 74.403C568.294 72.7329 570.885 70.2107 572.84 66.8138C574.783 63.4168 575.761 59.2359 575.761 54.2711C575.761 49.3063 574.783 45.2163 572.84 41.8193C570.885 38.4223 568.317 35.9002 565.1 34.2301C561.895 32.56 558.429 31.7306 554.724 31.7306C551.019 31.7306 547.575 32.56 544.393 34.2301C541.222 35.9002 538.654 38.4223 536.71 41.8193C534.755 45.2163 533.789 49.3631 533.789 54.2711C533.789 59.1791 534.744 63.4168 536.665 66.8138C538.585 70.2107 541.131 72.7443 544.302 74.403C547.473 76.0731 550.917 76.9024 554.633 76.9024C558.349 76.9024 561.816 76.0731 565.055 74.403Z" fill="white"/>
<path d="M75.4137 25.1865C75.7326 25.7274 76.3843 25.9908 76.9944 25.8105L87.13 22.7732C87.6707 22.6206 88.0312 22.1213 88.0312 21.5804V2.45487C88.0312 1.09569 86.9359 0 85.5771 0H2.05209C0.818072 0 0.0693311 0.832195 0.0693311 2.03881L0 45.8376V85.5451C0 86.9043 1.09537 88 2.45418 88H85.9792C87.2132 88 87.9619 87.1679 87.9619 85.9474L88.0312 42.1624V42.0236C88.0312 40.4009 87.7955 39.2776 85.5909 39.9017L81.6116 41.0805C80.9738 41.2747 80.5578 41.8711 80.5855 42.523L80.6549 43.9931C80.6549 61.4267 71.5731 73.9367 55.5447 78.8464C29.3253 86.8766 5.40751 66.2947 7.52891 40.817C8.99864 23.328 23.0581 9.1259 40.5285 7.51707C55.309 6.15789 68.4672 13.578 75.3999 25.1587L75.4137 25.1865Z" fill="#005BCB"/>
<path d="M57.7763 61.5793C61.4783 59.0274 64.3346 55.3381 65.8459 51.0248C66.248 49.8459 66.5669 48.6116 66.761 47.3495C66.8858 46.5867 66.1648 45.9487 65.43 46.1844L58.6221 48.3203C58.3309 48.4174 58.0952 48.6393 57.9843 48.9306C55.8351 54.298 50.289 57.9178 44.0219 57.155C37.9072 56.4061 33.0127 51.33 32.472 45.1998C32.2917 43.1471 32.5829 41.1777 33.2346 39.3886C35.1064 34.3402 39.9732 30.7342 45.6718 30.7342C48.8886 30.7342 51.8419 31.8853 54.1436 33.7993C54.407 34.0212 54.7675 34.1044 55.1142 33.9935L61.5754 31.9685C61.9359 31.8576 62.1716 31.5802 62.2687 31.2751C62.3519 30.9561 62.3103 30.5955 62.0746 30.3181C57.9011 25.3113 51.4676 22.2463 44.3269 22.6762C44.2437 22.6901 44.1605 22.7039 44.0773 22.7039L41.8727 15.6861C41.5954 14.7707 40.6248 14.2576 39.7097 14.5349L34.6904 16.1022C33.7753 16.3934 33.2623 17.3643 33.5535 18.2796L35.1896 23.5084C35.4808 24.4237 35.1203 25.4223 34.3161 25.9355C30.3367 28.4597 27.217 32.2598 25.5948 36.7534C24.9292 38.5564 24.5133 40.4703 24.3746 42.4536C24.333 43.1887 24.3191 43.9099 24.3469 44.6172C24.3885 45.5742 23.7645 46.4341 22.8494 46.7254L17.331 48.5007C16.4159 48.7919 15.9029 49.7627 16.1802 50.678L17.747 55.6988C18.0381 56.6141 19.0087 57.1133 19.9238 56.836L25.5393 55.0191C26.4267 54.7417 27.4111 55.0607 27.9241 55.8374C31.751 61.5654 38.2677 65.3517 45.6718 65.3517C45.9907 65.3517 46.2958 65.3517 46.6008 65.3517C47.5714 65.2962 48.4449 65.9203 48.7361 66.8357L50.4415 72.3279C50.7327 73.2433 51.7033 73.7564 52.6184 73.4652L57.6376 71.898C58.5527 71.6206 59.0519 70.6359 58.7746 69.7205L56.9721 63.9786C56.6948 63.091 57.0137 62.1202 57.7763 61.5932V61.5793Z" fill="#005BCB"/>
</svg>
