<svg width="150" height="48" viewBox="0 0 150 48" fill="none" xmlns="http://www.w3.org/2000/svg">
<g clip-path="url(#clip0)">
<path d="M123.736 22.0521C124.499 21.2472 125.319 20.5258 126.224 19.9052C128.506 18.3363 131.023 17.4365 133.785 17.2581C141.241 16.7752 147.852 21.6933 149.599 29.02C149.855 30.0905 150.013 31.1804 150 32.2819C149.959 35.6447 149.894 39.0056 149.838 42.3683C149.826 43.115 149.815 43.8616 149.803 44.6063C149.803 44.6955 149.795 44.7828 149.788 44.9282C149.314 44.8856 148.852 44.872 148.399 44.7983C145.333 44.2941 143.413 42.4246 142.343 39.5738C141.777 38.0689 141.58 36.4961 141.586 34.8923C141.59 33.8256 141.549 32.7571 141.597 31.6943C141.64 30.7673 141.386 29.9393 140.939 29.1655C139.516 26.6987 137.374 25.4013 134.54 25.506C131.809 25.6068 129.814 26.9934 128.547 29.4312C128.475 29.5669 128.454 29.7434 128.454 29.9024C128.45 34.7914 128.45 39.6804 128.45 44.5675V44.9418C127.865 44.8778 127.301 44.8584 126.758 44.7479C123.12 44.0032 120.936 41.6857 119.862 38.2007C119.532 37.1283 119.417 36.021 119.417 34.9C119.417 33.653 119.407 32.4061 119.423 31.1591C119.428 30.6471 119.251 30.1933 119.059 29.7453C117.828 26.881 114.972 25.2616 112.066 25.5079C108.977 25.7697 106.372 28.0833 105.8 31.2192C105.671 31.9251 105.652 32.6504 105.59 33.368C105.326 36.4689 104.236 39.246 102.293 41.6605C99.805 44.7537 96.5909 46.6309 92.6798 47.2186C88.8976 47.7848 85.4486 46.8288 82.2942 44.7091C81.2601 44.0148 80.3415 43.179 79.5038 42.2306C79.4595 42.2694 79.4152 42.3005 79.3806 42.3392C77.0427 44.9088 74.1791 46.532 70.7725 47.1623C67.8357 47.7053 64.9972 47.3039 62.3146 46.0414C57.4829 43.7666 54.5 39.9597 53.5583 34.6654C52.3894 28.0853 55.6708 21.573 61.5848 18.4954C63.7108 17.388 65.9755 16.7791 68.3692 16.8237C71.8971 16.8896 75.0457 18.0706 77.7707 20.3416C78.3715 20.8419 78.9184 21.4063 79.5019 21.9532C82.4618 18.6951 86.163 16.8508 90.5845 16.8256C95.008 16.8004 98.7247 18.6078 101.746 21.8601C104.808 18.8076 108.471 17.1921 112.783 17.229C117.094 17.2678 120.726 18.9492 123.734 22.054L123.736 22.0521ZM97.4325 31.6827C97.4017 30.0168 96.6487 28.2521 95.1062 26.8732C93.6484 25.568 91.9403 24.9087 89.9683 25.1395C86.6137 25.5312 83.9773 28.4479 83.9003 31.8805C83.8464 34.2872 84.7977 36.2479 86.6926 37.714C87.9251 38.6662 89.3405 39.1879 90.8984 39.1025C94.5728 38.8989 97.4286 35.8037 97.4306 31.6846L97.4325 31.6827ZM61.5424 32.4992C61.5597 34.006 62.2049 35.6738 63.5567 37.0255C65.0954 38.5653 66.9576 39.3411 69.1356 39.0502C72.4518 38.608 74.9899 35.7048 75.0688 32.3149C75.1208 30.0459 74.2677 28.1493 72.5326 26.7025C71.0671 25.4788 69.3629 24.8835 67.4506 25.1588C64.0594 25.6495 61.5463 28.6283 61.5424 32.4992Z" fill="white"/>
<path d="M26.9695 19.7365C28.4235 19.2672 29.9718 19.0132 31.5817 19.0132C34.3163 19.0132 36.8794 19.7482 39.094 21.0281C35.9204 15.4274 32.8103 9.95461 30.018 5.09274C29.6617 4.47216 29.2593 3.85546 28.774 3.33572C25.9123 0.275484 22.4498 -0.668962 18.4347 0.465537C17.7626 0.65559 17.1232 0.946488 16.5147 1.33241C16.5571 1.4158 16.5917 1.48756 16.6302 1.55737C19.7904 7.07085 23.3588 13.3639 26.9695 19.7365Z" fill="#FC5922"/>
<path d="M53.1674 45.799C51.1453 42.2714 48.9558 38.4238 46.6949 34.4385C46.641 38.6196 44.9136 42.3935 42.156 45.1125C45.1062 47.5114 48.4416 48.0234 52.1486 46.6426C52.5473 46.4933 52.9189 46.2741 53.3272 46.0763C53.2579 45.9541 53.2136 45.8766 53.1693 45.8009L53.1674 45.799Z" fill="#FC5922"/>
<path d="M26.7943 19.6046C25.1651 20.5549 23.7805 21.7689 22.6559 23.1575C19.6132 17.8728 16.5821 12.6115 13.5067 7.27835C13.1485 6.65777 12.746 6.04301 12.2588 5.52521C9.39521 2.46691 5.9308 1.53022 1.91755 2.6686C1.24547 2.85865 0.608047 3.15343 -0.000488281 3.53741C0.0418781 3.6208 0.0765415 3.69256 0.116982 3.76237C7.19409 16.0615 14.2731 28.3607 21.3502 40.6598C21.7893 41.4239 22.2919 42.1414 22.9313 42.7426C22.9582 42.7678 22.9852 42.7892 23.0102 42.8124C27.6744 48.1766 35.5988 49.6543 41.9557 45.9444C49.1791 41.7284 51.6402 32.4138 47.4537 25.1394C43.2671 17.8651 34.0178 15.3866 26.7943 19.6027V19.6046ZM37.9463 38.8737C34.6051 40.8246 30.3261 39.6766 28.3888 36.3118C26.4515 32.9471 27.5916 28.638 30.9327 26.687C34.2739 24.7361 38.5529 25.8841 40.4902 29.2489C42.4275 32.6136 41.2874 36.9227 37.9463 38.8737Z" fill="white"/>
</g>
<defs>
<clipPath id="clip0">
<rect width="150" height="48" fill="white"/>
</clipPath>
</defs>
</svg>
