<svg width="185" height="48" viewBox="0 0 185 48" fill="none" xmlns="http://www.w3.org/2000/svg">
<path d="M31.5904 21.4653C31.5904 21.8265 31.5843 22.1817 31.5482 22.5368C31.4098 24.144 30.9703 25.6729 30.2841 27.0514C30.0193 27.5931 29.3391 27.7797 28.8274 27.4667H28.8154C22.7598 23.7828 15.1633 23.7828 9.11374 27.4607L9.09568 27.4728C8.58403 27.7858 7.90383 27.5931 7.63898 27.0574C6.95878 25.6729 6.51936 24.15 6.38693 22.5428C6.35683 22.1877 6.33878 21.8386 6.33878 21.4714C6.33878 21.1042 6.35683 20.749 6.38693 20.3999C6.51936 18.7867 6.95878 17.2638 7.64499 15.8793C7.90985 15.3375 8.59005 15.1509 9.1017 15.464C15.1573 19.1539 22.7658 19.1479 28.8214 15.464C29.3331 15.1509 30.0133 15.3436 30.2781 15.8793C30.9643 17.2638 31.4038 18.7867 31.5422 20.3999C31.5723 20.743 31.5843 21.1042 31.5843 21.4714L31.5904 21.4653Z" fill="#4C84E2"/>
<path d="M18.9676 5.40546C24.8666 5.40546 30.0795 8.37907 33.1975 12.9057C33.5045 13.3511 34.1065 13.4655 34.57 13.1826L37.4292 11.443C37.9228 11.142 38.0853 10.4859 37.7603 10.0043C33.6791 3.97284 26.7808 0 18.9676 0C11.1543 0 4.25003 3.97284 0.174863 10.0043C-0.150187 10.4859 0.0123381 11.142 0.505933 11.443L3.36517 13.1826C3.82265 13.4595 4.43061 13.3451 4.7376 12.9057C7.84966 8.37907 13.0685 5.40546 18.9676 5.40546ZM37.7543 32.9264C38.0793 32.4448 37.9168 31.7887 37.4232 31.4877L34.564 29.7481C34.1065 29.4712 33.4985 29.5856 33.1915 30.025C30.0795 34.5516 24.8606 37.5252 18.9616 37.5252C13.0625 37.5252 7.84364 34.5516 4.73158 30.025C4.42459 29.5796 3.82265 29.4652 3.35915 29.7481L0.499913 31.4877C0.0063186 31.7887 -0.156206 32.4448 0.168844 32.9264C4.24401 38.9579 11.1483 42.9307 18.9616 42.9307C26.7748 42.9307 33.6731 38.9579 37.7543 32.9264Z" fill="#4C84E2"/>
<path d="M52.6226 37.4527V5.81098H57.2151V20.5771L70.4651 5.81098H76.1782L62.1811 21.2583L77.2109 37.4527H71.322L57.2151 22.335V37.4527H52.6226Z" fill="#E4EDFB"/>
<path d="M86.8724 38.1119C84.5139 38.1119 82.4411 37.5992 80.6539 36.5738C78.8814 35.5337 77.497 34.0908 76.5009 32.245C75.5194 30.3846 75.0287 28.2312 75.0287 25.7848C75.0287 23.192 75.5121 20.9434 76.4789 19.039C77.4604 17.1346 78.8228 15.6624 80.566 14.6223C82.3092 13.5823 84.3381 13.0622 86.6526 13.0622C89.0697 13.0622 91.1279 13.6262 92.8272 14.7542C94.5264 15.8675 95.7936 17.4569 96.6286 19.5224C97.4782 21.5879 97.8151 24.0416 97.6394 26.8835H93.0469V25.2135C93.0176 22.4595 92.4902 20.4233 91.4648 19.1049C90.454 17.7865 88.9086 17.1273 86.8284 17.1273C84.5285 17.1273 82.7999 17.8524 81.6427 19.3027C80.4854 20.7529 79.9068 22.8477 79.9068 25.5871C79.9068 28.1946 80.4854 30.2162 81.6427 31.6518C82.7999 33.0727 84.4699 33.7832 86.6526 33.7832C88.0882 33.7832 89.3261 33.4609 90.3661 32.8163C91.4209 32.1571 92.2412 31.2196 92.8272 30.0037L97.3317 31.432C96.4088 33.5561 95.0099 35.2041 93.1348 36.376C91.2597 37.5333 89.1722 38.1119 86.8724 38.1119ZM78.4126 26.8835V23.3018H95.3541V26.8835H78.4126Z" fill="#E4EDFB"/>
<path d="M110.897 38.1119C108.539 38.1119 106.466 37.5992 104.679 36.5738C102.906 35.5337 101.522 34.0908 100.526 32.245C99.5443 30.3846 99.0536 28.2312 99.0536 25.7848C99.0536 23.192 99.537 20.9434 100.504 19.039C101.485 17.1346 102.848 15.6624 104.591 14.6223C106.334 13.5823 108.363 13.0622 110.677 13.0622C113.095 13.0622 115.153 13.6262 116.852 14.7542C118.551 15.8675 119.818 17.4569 120.653 19.5224C121.503 21.5879 121.84 24.0416 121.664 26.8835H117.072V25.2135C117.042 22.4595 116.515 20.4233 115.49 19.1049C114.479 17.7865 112.933 17.1273 110.853 17.1273C108.553 17.1273 106.825 17.8524 105.668 19.3027C104.51 20.7529 103.932 22.8477 103.932 25.5871C103.932 28.1946 104.51 30.2162 105.668 31.6518C106.825 33.0727 108.495 33.7832 110.677 33.7832C112.113 33.7832 113.351 33.4609 114.391 32.8163C115.446 32.1571 116.266 31.2196 116.852 30.0037L121.357 31.432C120.434 33.5561 119.035 35.2041 117.16 36.376C115.285 37.5333 113.197 38.1119 110.897 38.1119ZM102.437 26.8835V23.3018H119.379V26.8835H102.437Z" fill="#E4EDFB"/>
<path d="M134.894 38.1119C132.623 38.1119 130.719 37.5626 129.181 36.4639C127.642 35.3506 126.478 33.8491 125.687 31.9594C124.896 30.0697 124.5 27.9382 124.5 25.5651C124.5 23.192 124.888 21.0606 125.665 19.1708C126.456 17.2811 127.613 15.7942 129.137 14.7102C130.675 13.6116 132.564 13.0622 134.806 13.0622C137.032 13.0622 138.951 13.6116 140.563 14.7102C142.189 15.7942 143.441 17.2811 144.32 19.1708C145.199 21.0459 145.639 23.1773 145.639 25.5651C145.639 27.9382 145.199 30.077 144.32 31.9814C143.456 33.8711 142.218 35.3653 140.607 36.4639C139.01 37.5626 137.106 38.1119 134.894 38.1119ZM123.731 48V13.7214H127.818V30.7948H128.346V48H123.731ZM134.256 33.959C135.721 33.959 136.93 33.5854 137.882 32.8383C138.849 32.0912 139.567 31.0878 140.035 29.828C140.519 28.5535 140.761 27.1325 140.761 25.5651C140.761 24.0123 140.519 22.606 140.035 21.3462C139.567 20.0864 138.842 19.0829 137.86 18.3358C136.879 17.5887 135.626 17.2152 134.103 17.2152C132.667 17.2152 131.48 17.5668 130.543 18.2699C129.62 18.9731 128.931 19.9546 128.477 21.2144C128.038 22.4742 127.818 23.9244 127.818 25.5651C127.818 27.2058 128.038 28.656 128.477 29.9158C128.917 31.1757 129.613 32.1645 130.565 32.8823C131.517 33.6001 132.748 33.959 134.256 33.959Z" fill="#E4EDFB"/>
<path d="M148.293 37.4527V13.7214H152.38V19.4785L151.809 18.7314C152.102 17.9696 152.483 17.2738 152.951 16.6439C153.42 15.9993 153.962 15.472 154.577 15.0618C155.178 14.6223 155.844 14.2854 156.577 14.051C157.324 13.802 158.086 13.6555 158.862 13.6116C159.639 13.553 160.386 13.5896 161.103 13.7214V18.0282C160.327 17.8231 159.463 17.7645 158.511 17.8524C157.573 17.9403 156.709 18.2406 155.918 18.7533C155.171 19.2368 154.577 19.8227 154.138 20.5112C153.713 21.1997 153.405 21.9688 153.215 22.8184C153.025 23.6534 152.929 24.5397 152.929 25.4772V37.4527H148.293Z" fill="#E4EDFB"/>
<path d="M172.967 38.1119C170.594 38.1119 168.536 37.5773 166.793 36.5079C165.049 35.4385 163.702 33.9663 162.749 32.0912C161.812 30.2015 161.343 28.0261 161.343 25.5651C161.343 23.0894 161.827 20.9141 162.793 19.039C163.76 17.1493 165.115 15.6844 166.858 14.6443C168.602 13.5896 170.638 13.0622 172.967 13.0622C175.34 13.0622 177.398 13.5969 179.142 14.6663C180.885 15.7357 182.233 17.2079 183.185 19.0829C184.137 20.958 184.613 23.1187 184.613 25.5651C184.613 28.0408 184.13 30.2235 183.163 32.1132C182.211 33.9883 180.863 35.4605 179.12 36.5299C177.376 37.5846 175.326 38.1119 172.967 38.1119ZM172.967 33.7832C175.238 33.7832 176.93 33.0214 178.043 31.4979C179.171 29.9598 179.735 27.9822 179.735 25.5651C179.735 23.0894 179.164 21.1118 178.021 19.6323C176.893 18.1381 175.208 17.391 172.967 17.391C171.429 17.391 170.162 17.7426 169.166 18.4457C168.17 19.1342 167.43 20.0937 166.946 21.3242C166.463 22.5401 166.221 23.9537 166.221 25.5651C166.221 28.0554 166.793 30.0477 167.935 31.5419C169.078 33.0361 170.755 33.7832 172.967 33.7832Z" fill="#E4EDFB"/>
</svg>
