<svg width="264" height="41" viewBox="0 0 264 41" fill="none" xmlns="http://www.w3.org/2000/svg">
<path d="M57.4374 32.3839H67.5301V36.3293H52.5436V6.53737H57.4374V32.3839Z" fill="white"/>
<path d="M91.8753 26.3419H73.8004C73.9453 28.2268 74.6437 29.745 75.9059 30.8863C77.1629 32.0276 78.7097 32.6008 80.541 32.6008C83.1741 32.6008 85.0364 31.5008 86.1228 29.3009H91.4045C90.6906 31.475 89.3922 33.2515 87.5195 34.6355C85.6468 36.0195 83.3189 36.7166 80.541 36.7166C78.2803 36.7166 76.2525 36.2105 74.4626 35.1932C72.6727 34.181 71.2708 32.7506 70.2569 30.907C69.2429 29.0634 68.7308 26.9306 68.7308 24.4983C68.7308 22.066 69.2222 19.9332 70.2103 18.0896C71.1984 16.246 72.5848 14.8258 74.3747 13.824C76.1645 12.8221 78.2183 12.3212 80.5358 12.3212C82.8534 12.3212 84.7571 12.8066 86.5056 13.7775C88.2541 14.7484 89.6094 16.1117 90.5872 17.8727C91.5597 19.6285 92.046 21.6528 92.046 23.9354C92.046 24.8236 91.9891 25.624 91.8753 26.3367V26.3419ZM86.935 22.3965C86.9039 20.5942 86.2624 19.1534 85.0054 18.0689C83.7431 16.9844 82.186 16.4422 80.3237 16.4422C78.6321 16.4422 77.1888 16.9793 75.9887 18.0482C74.7885 19.1224 74.0694 20.5683 73.8418 22.3965H86.935Z" fill="white"/>
<path d="M98.1187 13.5245C99.4793 11.2109 101.326 9.40347 103.659 8.10211C105.992 6.80074 108.548 6.15006 111.326 6.15006C114.502 6.15006 117.332 6.92985 119.804 8.48425C122.282 10.0438 124.077 12.2489 125.195 15.1047H119.313C118.542 13.5348 117.466 12.3625 116.095 11.5879C114.724 10.8133 113.131 10.4311 111.331 10.4311C109.355 10.4311 107.596 10.8752 106.049 11.7583C104.502 12.6465 103.292 13.9169 102.423 15.5746C101.549 17.2323 101.114 19.1585 101.114 21.3585C101.114 23.5584 101.549 25.4898 102.423 27.1475C103.297 28.8051 104.508 30.0859 106.049 30.9844C107.591 31.883 109.355 32.3323 111.331 32.3323C113.136 32.3323 114.724 31.9449 116.095 31.1755C117.466 30.406 118.542 29.2338 119.313 27.6587H125.195C124.077 30.5145 122.282 32.7144 119.804 34.2585C117.326 35.8026 114.502 36.572 111.326 36.572C108.522 36.572 105.956 35.9213 103.638 34.62C101.321 33.3186 99.4793 31.5112 98.1187 29.1976C96.7582 26.8841 96.0805 24.2659 96.0805 21.3533C96.0805 18.4407 96.7582 15.8225 98.1187 13.509V13.5245Z" fill="white"/>
<path d="M133.782 35.1932C131.977 34.181 130.559 32.7506 129.53 30.907C128.5 29.0634 127.983 26.9306 127.983 24.4983C127.983 22.066 128.511 19.9693 129.571 18.1102C130.632 16.2511 132.075 14.8258 133.906 13.824C135.737 12.8221 137.786 12.3212 140.047 12.3212C142.307 12.3212 144.356 12.8221 146.187 13.824C148.018 14.8258 149.467 16.2511 150.522 18.1102C151.583 19.9693 152.11 22.0969 152.11 24.4983C152.11 26.8996 151.567 29.0272 150.481 30.8863C149.394 32.7454 147.91 34.181 146.037 35.1932C144.164 36.2054 142.095 36.7166 139.835 36.7166C137.574 36.7166 135.582 36.2105 133.782 35.1932ZM143.373 31.568C144.475 30.9689 145.37 30.0652 146.058 28.8671C146.746 27.669 147.087 26.2076 147.087 24.4931C147.087 22.7786 146.756 21.3275 146.099 20.1449C145.442 18.9571 144.568 18.0637 143.482 17.4647C142.395 16.8657 141.221 16.5661 139.959 16.5661C138.696 16.5661 137.533 16.8657 136.462 17.4647C135.386 18.0637 134.537 18.9571 133.906 20.1449C133.275 21.3326 132.96 22.7786 132.96 24.4931C132.96 27.039 133.611 29.0014 134.915 30.3854C136.219 31.7694 137.858 32.4665 139.829 32.4665C141.086 32.4665 142.271 32.167 143.373 31.568Z" fill="white"/>
<path d="M162.245 16.6952V36.3241H157.31V16.6952H154.521V12.7085H157.31V11.0353C157.31 8.319 158.034 6.34114 159.477 5.09658C160.921 3.85202 163.192 3.23232 166.285 3.23232V7.30683C164.795 7.30683 163.75 7.58569 163.15 8.14342C162.55 8.70115 162.25 9.66684 162.25 11.0353V12.7085H166.632V16.6952H162.245Z" fill="white"/>
<path d="M177.356 16.6952V36.3241H172.421V16.6952H169.633V12.7085H172.421V11.0353C172.421 8.319 173.145 6.34114 174.588 5.09658C176.032 3.85202 178.303 3.23232 181.396 3.23232V7.30683C179.906 7.30683 178.861 7.58569 178.261 8.14342C177.661 8.70115 177.361 9.66684 177.361 11.0353V12.7085H181.743V16.6952H177.356Z" fill="white"/>
<path d="M192.921 13.3334C194.111 12.662 195.518 12.3264 197.153 12.3264V17.3821H195.906C193.987 17.3821 192.538 17.8675 191.55 18.8384C190.562 19.8092 190.071 21.4979 190.071 23.894V36.3241H185.177V12.7085H190.071V16.1375C190.785 14.9394 191.737 13.9996 192.926 13.3282L192.921 13.3334Z" fill="white"/>
<path d="M221.798 26.3419H203.723C203.868 28.2268 204.566 29.745 205.829 30.8863C207.086 32.0276 208.632 32.6008 210.464 32.6008C213.097 32.6008 214.959 31.5008 216.045 29.3009H221.327C220.613 31.475 219.315 33.2515 217.442 34.6355C215.569 36.0195 213.242 36.7166 210.464 36.7166C208.203 36.7166 206.175 36.2105 204.385 35.1932C202.595 34.181 201.193 32.7506 200.179 30.907C199.166 29.0634 198.653 26.9306 198.653 24.4983C198.653 22.066 199.145 19.9332 200.133 18.0896C201.121 16.246 202.507 14.8258 204.297 13.824C206.087 12.8221 208.141 12.3212 210.458 12.3212C212.776 12.3212 214.68 12.8066 216.428 13.7775C218.177 14.7484 219.532 16.1117 220.51 17.8727C221.482 19.6285 221.969 21.6528 221.969 23.9354C221.969 24.8236 221.912 25.624 221.798 26.3367V26.3419ZM216.858 22.3965C216.827 20.5942 216.185 19.1534 214.928 18.0689C213.666 16.9844 212.109 16.4422 210.246 16.4422C208.555 16.4422 207.111 16.9793 205.911 18.0482C204.711 19.1224 203.992 20.5683 203.764 22.3965H216.858Z" fill="white"/>
<path d="M226.432 35.9833C226.117 35.6683 225.962 35.2707 225.962 34.7852C225.962 34.2998 226.117 33.9022 226.432 33.5871C226.748 33.2721 227.146 33.1172 227.633 33.1172C228.088 33.1172 228.476 33.2721 228.791 33.5871C229.107 33.9022 229.262 34.2998 229.262 34.7852C229.262 35.2707 229.107 35.6735 228.791 35.9833C228.476 36.2983 228.088 36.4532 227.633 36.4532C227.146 36.4532 226.743 36.2983 226.432 35.9833Z" fill="white"/>
<path d="M234.162 7.41528C233.846 7.11576 233.691 6.70779 233.691 6.19138C233.691 5.70595 233.846 5.30831 234.162 4.9933C234.477 4.67828 234.865 4.52336 235.321 4.52336C235.776 4.52336 236.164 4.67828 236.479 4.9933C236.795 5.30831 236.95 5.70595 236.95 6.19138C236.95 6.70779 236.795 7.11059 236.479 7.41528C236.164 7.7148 235.776 7.86456 235.321 7.86456C234.865 7.86456 234.477 7.7148 234.162 7.41528ZM236.267 13.0545V36.3293H234.333V13.0545H236.267Z" fill="white"/>
<path d="M246.572 35.2139C244.823 34.243 243.458 32.8487 242.469 31.0361C241.481 29.2235 240.99 27.101 240.99 24.6687C240.99 22.2364 241.492 20.1604 242.49 18.3478C243.494 16.5352 244.875 15.146 246.634 14.1906C248.393 13.2353 250.364 12.755 252.536 12.755C254.709 12.755 256.675 13.2353 258.418 14.1906C260.167 15.146 261.532 16.5248 262.52 18.3271C263.508 20.1294 264 22.2415 264 24.6687C264 27.0958 263.498 29.2183 262.5 31.0361C261.496 32.8487 260.115 34.243 258.356 35.2139C256.597 36.1847 254.626 36.6701 252.454 36.6701C250.281 36.6701 248.315 36.1847 246.572 35.2139ZM257.197 33.8195C258.672 33.0604 259.851 31.914 260.741 30.3699C261.626 28.8258 262.07 26.9254 262.07 24.6687C262.07 22.412 261.626 20.5529 260.741 19.0088C259.851 17.4647 258.682 16.3183 257.218 15.5591C255.759 14.8 254.181 14.423 252.495 14.423C250.809 14.423 249.241 14.8 247.793 15.5591C246.349 16.3183 245.18 17.4647 244.296 19.0088C243.406 20.5529 242.966 22.4378 242.966 24.6687C242.966 26.8996 243.401 28.8258 244.275 30.3699C245.149 31.914 246.308 33.0656 247.751 33.8195C249.195 34.5787 250.762 34.9557 252.454 34.9557C254.145 34.9557 255.723 34.5787 257.197 33.8195Z" fill="white"/>
<path d="M34.3263 11.4484C34.4714 11.6943 34.768 11.814 35.0457 11.7321L39.6592 10.3514C39.9053 10.2821 40.0694 10.0552 40.0694 9.80929V1.11585C40.0694 0.498042 39.5708 0 38.9523 0H0.934055C0.372364 0 0.0315576 0.37827 0.0315576 0.926734L0 20.8353V38.8841C0 39.5019 0.498582 40 1.11707 40H39.1353C39.697 40 40.0378 39.6218 40.0378 39.067L40.0694 19.1647V19.1016C40.0694 18.3641 39.9621 17.8534 38.9586 18.1371L37.1473 18.673C36.857 18.7612 36.6677 19.0323 36.6803 19.3286L36.7119 19.9969C36.7119 27.9212 32.5781 33.6076 25.2824 35.8393C13.3481 39.4894 2.46135 30.1339 3.42695 18.5532C4.09593 10.6036 10.4954 4.14814 18.4474 3.41685C25.1751 2.79904 31.1644 6.17179 34.3199 11.4358L34.3263 11.4484Z" fill="white"/>
<path d="M26.2982 27.9906C27.9832 26.8306 29.2833 25.1537 29.9712 23.1931C30.1543 22.6572 30.2994 22.0962 30.3878 21.5225C30.4446 21.1758 30.1164 20.8858 29.7819 20.9929L26.6832 21.9638C26.5506 22.0079 26.4433 22.1088 26.3928 22.2412C25.4146 24.6809 22.8902 26.3263 20.0375 25.9795C17.2543 25.6391 15.0265 23.3318 14.7803 20.5454C14.6983 19.6123 14.8308 18.7171 15.1275 17.9039C15.9795 15.6092 18.1947 13.9701 20.7886 13.9701C22.2527 13.9701 23.597 14.4933 24.6447 15.3633C24.7646 15.4642 24.9287 15.502 25.0864 15.4516L28.0274 14.5311C28.1915 14.4807 28.2988 14.3546 28.343 14.2159C28.3809 14.0709 28.3619 13.907 28.2546 13.7809C26.355 11.5051 23.4266 10.1119 20.1764 10.3074C20.1385 10.3137 20.1006 10.32 20.0628 10.32L19.0593 7.13005C18.9331 6.71398 18.4913 6.48071 18.0748 6.60679L15.7901 7.31917C15.3736 7.45156 15.1401 7.89285 15.2726 8.30893L16.0173 10.6856C16.1499 11.1017 15.9858 11.5556 15.6197 11.7888C13.8084 12.9362 12.3884 14.6635 11.65 16.7061C11.3471 17.5256 11.1578 18.3956 11.0946 19.2971C11.0757 19.6312 11.0694 19.959 11.082 20.2806C11.101 20.7155 10.817 21.1064 10.4004 21.2388L7.88859 22.0457C7.47206 22.1781 7.23855 22.6194 7.36477 23.0355L8.07793 25.3176C8.21046 25.7337 8.65225 25.9606 9.06878 25.8345L11.6248 25.0087C12.0287 24.8826 12.4768 25.0276 12.7103 25.3806C14.4522 27.9843 17.4184 29.7053 20.7886 29.7053C20.9337 29.7053 21.0726 29.7053 21.2114 29.7053C21.6532 29.6801 22.0508 29.9638 22.1833 30.3799L22.9596 32.8763C23.0921 33.2924 23.5339 33.5257 23.9504 33.3933L26.2351 32.6809C26.6516 32.5548 26.8788 32.1072 26.7526 31.6911L25.9321 29.0812C25.8059 28.6777 25.9511 28.2365 26.2982 27.9969V27.9906Z" fill="white"/>
</svg>
