<svg width="255" height="32" viewBox="0 0 255 32" fill="none" xmlns="http://www.w3.org/2000/svg">
<path d="M89.7963 2.13424L84.5443 23.9279H84.4657L75.9916 2.13424H71.735L63.3002 23.9279H63.2216L57.9303 2.13424H53.2938L60.1175 29.8659H65.1601L73.8044 8.27311H73.8829L82.5272 29.8659H87.6091L94.4197 2.13424H89.7963Z" fill="white"/>
<path d="M105.658 8.27311C98.8338 8.27311 93.9616 12.8302 93.9616 19.4461C93.9616 26.062 98.6374 30.4559 105.828 30.4559C110.464 30.4559 114.014 28.7486 116.45 25.3088L113.385 23.0114C111.447 25.6603 108.919 27.0161 105.815 27.0161C103.667 27.0161 101.886 26.4261 100.445 25.2711C99.0041 24.1162 98.2576 22.6222 98.2183 20.7517H117.236V19.3708C117.236 13.031 112.363 8.27311 105.658 8.27311ZM98.2969 17.6258C98.5457 14.299 101.61 11.7254 105.697 11.7254C109.495 11.7254 112.717 14.299 112.966 17.6258H98.2969Z" fill="white"/>
<path d="M132.062 8.27311C129.049 8.27311 126.115 9.34019 124.413 11.2107H124.334V8.8757H120.195V29.8784H124.452V18.1907C124.452 16.3327 125.107 14.8263 126.43 13.6713C127.792 12.4787 129.534 11.8886 131.682 11.8886C135.69 11.8886 138.257 14.2613 138.257 18.1028V29.8659H142.513V17.4249C142.513 12.0016 138.296 8.27311 132.062 8.27311Z" fill="white"/>
<path d="M150.529 0.941704H145.853V5.22259H150.529V0.941704Z" fill="white"/>
<path d="M150.398 8.87573H146.141V29.8784H150.398V8.87573Z" fill="white"/>
<path d="M180.287 8.27311C177.183 8.27311 174.629 9.42807 172.808 11.5246H172.729C171.289 9.57872 168.355 8.27311 165.5 8.27311C162.644 8.27311 160.169 9.26487 158.637 10.9722H158.558V8.8757H154.589V29.8784H158.768V17.4375C158.768 14.1107 161.086 11.8886 164.517 11.8886C167.949 11.8886 170.228 14.1483 170.228 17.4375V29.8784H174.275V17.4375C174.275 14.1107 176.593 11.8886 180.025 11.8886C183.456 11.8886 185.683 14.073 185.683 17.4375V29.8784H189.9V16.4834C189.9 11.7254 185.814 8.28566 180.313 8.28566L180.287 8.27311Z" fill="white"/>
<path d="M218.793 8.27311C215.689 8.27311 213.135 9.42807 211.314 11.5246H211.236C209.795 9.57872 206.848 8.27311 204.006 8.27311C201.164 8.27311 198.675 9.26487 197.143 10.9722H197.064V8.8757H193.096V29.8784H197.274V17.4375C197.274 14.1107 199.592 11.8886 203.023 11.8886C206.455 11.8886 208.734 14.1483 208.734 17.4375V29.8784H212.781V17.4375C212.781 14.1107 215.099 11.8886 218.531 11.8886C221.962 11.8886 224.189 14.073 224.189 17.4375V29.8784H228.406V16.4834C228.406 11.7254 224.32 8.28566 218.819 8.28566L218.793 8.27311Z" fill="white"/>
<path d="M242.735 8.27322C235.833 8.27322 230.711 13.0688 230.711 19.3709C230.711 25.673 235.833 30.4686 242.735 30.4686C249.598 30.5815 254.929 25.5976 254.798 19.3709C254.915 13.1567 249.585 8.16024 242.735 8.27322ZM242.735 26.853C238.19 26.853 234.968 23.8401 234.968 19.3709C234.968 14.9017 238.19 11.8888 242.735 11.8888C247.28 11.8888 250.541 14.9017 250.541 19.3709C250.541 23.8401 247.319 26.853 242.735 26.853Z" fill="white"/>
<path d="M19.7116 5.58649L39.4364 13.7968L39.4364 8.23537L19.7116 0L1.95627e-06 8.23537L7.11769e-07 22.459L19.7116 14.2487V5.58649Z" fill="#4646F0"/>
<path d="M39.4364 32L39.4364 22.4841L19.7116 14.2487V18.5422L4.5694e-07 26.7776L0 32L19.7116 23.7897L39.4364 32Z" fill="#4646F0"/>
</svg>
