<svg width="637" height="80" viewBox="0 0 637 80" fill="none" xmlns="http://www.w3.org/2000/svg">
<path d="M224.491 5.33561L211.361 59.8196H211.164L189.979 5.33561H179.337L158.251 59.8196H158.054L144.826 5.33561H133.234L150.294 74.6647H162.9L184.511 20.6828H184.707L206.318 74.6647H219.023L236.049 5.33561H224.491Z" fill="white"/>
<path d="M264.144 20.6828C247.085 20.6828 234.904 32.0755 234.904 48.6153C234.904 65.155 246.594 76.1397 264.57 76.1397C276.161 76.1397 285.034 71.8714 291.125 63.272L283.463 57.5285C278.617 64.1507 272.297 67.5403 264.537 67.5403C259.167 67.5403 254.714 66.0652 251.112 63.1778C247.51 60.2904 245.644 56.5556 245.546 51.8793H293.089V48.4269C293.089 32.5776 280.909 20.6828 264.144 20.6828ZM245.742 44.0645C246.364 35.7475 254.026 29.3136 264.242 29.3136C273.738 29.3136 281.793 35.7475 282.415 44.0645H245.742Z" fill="white"/>
<path d="M330.154 20.6828C322.623 20.6828 315.288 23.3505 311.032 28.0268H310.835V22.1892H300.488V74.696H311.13V45.4768C311.13 40.8318 312.767 37.0656 316.074 34.1782C319.48 31.1967 323.835 29.7216 329.204 29.7216C339.224 29.7216 345.642 35.6533 345.642 45.2571V74.6647H356.283V43.5623C356.283 30.0041 345.74 20.6828 330.154 20.6828Z" fill="white"/>
<path d="M376.322 2.35426H364.633V13.0565H376.322V2.35426Z" fill="white"/>
<path d="M375.995 22.1893H365.354V74.6961H375.995V22.1893Z" fill="white"/>
<path d="M450.717 20.6828C442.956 20.6828 436.571 23.5702 432.02 28.8114H431.824C428.222 23.9468 420.887 20.6828 413.749 20.6828C406.611 20.6828 400.423 23.1622 396.592 27.4305H396.395V22.1892H386.474V74.696H396.919V43.5937C396.919 35.2767 402.715 29.7216 411.293 29.7216C419.872 29.7216 425.57 35.3709 425.57 43.5937V74.696H435.687V43.5937C435.687 35.2767 441.483 29.7216 450.062 29.7216C458.641 29.7216 464.207 35.1826 464.207 43.5937V74.696H474.75V41.2084C474.75 29.3136 464.534 20.7142 450.782 20.7142L450.717 20.6828Z" fill="white"/>
<path d="M546.982 20.6828C539.222 20.6828 532.837 23.5702 528.285 28.8114H528.089C524.487 23.9468 517.12 20.6828 510.015 20.6828C502.909 20.6828 496.688 23.1622 492.857 27.4305H492.66V22.1892H482.739V74.696H493.184V43.5937C493.184 35.2767 498.98 29.7216 507.559 29.7216C516.138 29.7216 521.835 35.3709 521.835 43.5937V74.696H531.953V43.5937C531.953 35.2767 537.748 29.7216 546.327 29.7216C554.906 29.7216 560.472 35.1826 560.472 43.5937V74.696H571.016V41.2084C571.016 29.3136 560.8 20.7142 547.048 20.7142L546.982 20.6828Z" fill="white"/>
<path d="M606.837 20.6831C589.581 20.6831 576.779 32.6721 576.779 48.4272C576.779 64.1824 589.581 76.1714 606.837 76.1714C623.995 76.4539 637.322 63.9941 636.994 48.4272C637.289 32.8918 623.962 20.4006 606.837 20.6831ZM606.837 67.1326C595.475 67.1326 587.42 59.6002 587.42 48.4272C587.42 37.2542 595.475 29.7219 606.837 29.7219C618.199 29.7219 626.352 37.2542 626.352 48.4272C626.352 59.6002 618.298 67.1326 606.837 67.1326Z" fill="white"/>
<path d="M49.2791 13.9662L98.5909 34.4919L98.5909 20.5884L49.2791 0L4.89068e-06 20.5884L1.77942e-06 56.1474L49.2791 35.6218L49.2791 13.9662Z" fill="#4646F0"/>
<path d="M98.5909 80L98.5909 56.2103L49.2791 35.6218V46.3555L1.14235e-06 66.9439L0 80L49.2791 59.4743L98.5909 80Z" fill="#4646F0"/>
</svg>
